# xmcd CD database file
#
# Track frame offsets:
#	150
#	20133
#	39052
#	55161
#	76343
#	99804
#	118992
#	138666
#	162043
#	183432
#	197491
#	215931
#	232281
#	248433
#	265457
#	281572
#	300505
#	319854
#
# Disc length: 4497 seconds
#
# Revision: 0
# Processed by: cddbd v1.5.1PL0 Copyright (c) Steve Scherf et al.
# Submitted via: CDex 1.51
#
DISCID=fe118f12
DTITLE=旭聲 - 97日本上下通排行榜2
DYEAR=1997
DGENRE=Anime
TTITLE0=Breeze
TTITLE1=don't be discouraged
TTITLE2=ミラクル・ボディに御用心！
TTITLE3=鮮度が決め手！
TTITLE4=そっと夜に泣こう
TTITLE5=勇気をください
TTITLE6=LOVE SOMEBODY
TTITLE7=空を見上げて
TTITLE8=Happy Birthday
TTITLE9=キミがいれば
TTITLE10=逢いたいよ
TTITLE11=夢はどこへいった
TTITLE12=やめられないやめられない
TTITLE13=GET THE WORLD
TTITLE14=Tune-up Generation
TTITLE15=RIDE ON THE NIGHT
TTITLE16=虚空の迷宮
TTITLE17=SPEED VIBRATION
EXTD=YEAR: 1997
EXTT0=
EXTT1=
EXTT2=
EXTT3=
EXTT4=
EXTT5=
EXTT6=
EXTT7=
EXTT8=
EXTT9=
EXTT10=
EXTT11=
EXTT12=
EXTT13=
EXTT14=
EXTT15=
EXTT16=
EXTT17=
PLAYORDER=
